<svg aria-hidden="true" style="position: absolute; width: 0; height: 0; overflow: hidden;" version="1.1" xmlns="http://www.w3.org/2000/svg" xmlns:xlink="http://www.w3.org/1999/xlink">
<defs>
<symbol id="icon-laptop" viewBox="0 0 49 32">
<path fill="#00d5e4" style="fill: var(--color1, #00d5e4)" d="M46.127 30.824h-42.831c-0.574 0-1.039-0.465-1.039-1.039v-28.745c0-0.574 0.465-1.039 1.039-1.039h42.831c0.574 0 1.039 0.465 1.039 1.039v28.732c0.014 0.588-0.465 1.053-1.039 1.053z"></path>
<path fill="#065090" style="fill: var(--color2, #065090)" d="M44.609 29.785h-39.795c-0.574 0-1.039-0.465-1.039-1.039v-26.653c0-0.574 0.465-1.039 1.039-1.039h39.795c0.574 0 1.039 0.465 1.039 1.039v26.653c0.014 0.561-0.465 1.039-1.039 1.039z"></path>
<path fill="#fcfdfd" style="fill: var(--color3, #fcfdfd)" d="M15.809 3.952h-5.497v0.615h5.497v-0.615z"></path>
<path fill="#fcfdfd" style="fill: var(--color3, #fcfdfd)" d="M13.812 5.32h-3.501v0.615h3.501v-0.615z"></path>
<path fill="#fcfdfd" style="fill: var(--color3, #fcfdfd)" d="M29.88 5.32h-14.099v0.615h14.099v-0.615z"></path>
<path fill="#ff6452" style="fill: var(--color4, #ff6452)" d="M38.632 5.32h-7.385v0.615h7.385v-0.615z"></path>
<path fill="#00d050" style="fill: var(--color5, #00d050)" d="M20.581 6.687h-8.903v0.615h8.903v-0.615z"></path>
<path fill="#fcfdfd" style="fill: var(--color3, #fcfdfd)" d="M36.581 6.687h-13.265v0.615h13.265v-0.615z"></path>
<path fill="#ff6452" style="fill: var(--color4, #ff6452)" d="M22.838 8.055h-12.527v0.615h12.527v-0.615z"></path>
<path fill="#00d5e4" style="fill: var(--color1, #00d5e4)" d="M32.889 8.055h-8.903v0.615h8.903v-0.615z"></path>
<path fill="#fcfdfd" style="fill: var(--color3, #fcfdfd)" d="M20.581 9.422h-8.903v0.615h8.903v-0.615z"></path>
<path fill="#fcfdfd" style="fill: var(--color3, #fcfdfd)" d="M23.316 10.79h-13.005v0.615h13.005v-0.615z"></path>
<path fill="#fcfdfd" style="fill: var(--color3, #fcfdfd)" d="M19.214 12.157h-8.903v0.615h8.903v-0.615z"></path>
<path fill="#ff6452" style="fill: var(--color4, #ff6452)" d="M27.897 13.525h-14.851v0.615h14.851v-0.615z"></path>
<path fill="#fcfdfd" style="fill: var(--color3, #fcfdfd)" d="M34.256 13.525h-4.8v0.615h4.8v-0.615z"></path>
<path fill="#fcfdfd" style="fill: var(--color3, #fcfdfd)" d="M41.094 13.525h-4.8v0.615h4.8v-0.615z"></path>
<path fill="#fcfdfd" style="fill: var(--color3, #fcfdfd)" d="M20.472 14.892h-6.058v0.615h6.058v-0.615z"></path>
<path fill="#ff6452" style="fill: var(--color4, #ff6452)" d="M22.496 16.26h-8.082v0.615h8.082v-0.615z"></path>
<path fill="#fcfdfd" style="fill: var(--color3, #fcfdfd)" d="M34.256 16.26h-8.903v0.615h8.903v-0.615z"></path>
<path fill="#ff6452" style="fill: var(--color4, #ff6452)" d="M40 16.26h-3.706v0.615h3.706v-0.615z"></path>
<path fill="#fcfdfd" style="fill: var(--color3, #fcfdfd)" d="M15.781 17.627h-5.47v0.615h5.47v-0.615z"></path>
<path fill="#fcfdfd" style="fill: var(--color3, #fcfdfd)" d="M19.214 18.995h-8.903v0.615h8.903v-0.615z"></path>
<path fill="#fcfdfd" style="fill: var(--color3, #fcfdfd)" d="M30.564 20.362h-16.15v0.615h16.15v-0.615z"></path>
<path fill="#00d5e4" style="fill: var(--color1, #00d5e4)" d="M42.188 20.362h-9.997v0.615h9.997v-0.615z"></path>
<path fill="#fcfdfd" style="fill: var(--color3, #fcfdfd)" d="M19.897 21.73h-5.484v0.615h5.484v-0.615z"></path>
<path fill="#00d050" style="fill: var(--color5, #00d050)" d="M26.735 21.73h-5.484v0.615h5.484v-0.615z"></path>
<path fill="#fcfdfd" style="fill: var(--color3, #fcfdfd)" d="M33.573 21.73h-5.484v0.615h5.484v-0.615z"></path>
<path fill="#fcfdfd" style="fill: var(--color3, #fcfdfd)" d="M19.214 23.097h-8.903v0.615h8.903v-0.615z"></path>
<path fill="#00d050" style="fill: var(--color5, #00d050)" d="M21.949 24.465h-8.903v0.615h8.903v-0.615z"></path>
<path fill="#00d050" style="fill: var(--color5, #00d050)" d="M32.547 24.465h-8.903v0.615h8.903v-0.615z"></path>
<path fill="#fcfdfd" style="fill: var(--color3, #fcfdfd)" d="M28.444 27.2h-4.991v0.615h4.991v-0.615z"></path>
<path fill="#fcfdfd" style="fill: var(--color3, #fcfdfd)" d="M26.256 25.832h-13.21v0.615h13.21v-0.615z"></path>
<path fill="#5e94c1" style="fill: var(--color6, #5e94c1)" d="M6.879 3.952h-0.615v0.615h0.615v-0.615z"></path>
<path fill="#5e94c1" style="fill: var(--color6, #5e94c1)" d="M6.879 5.32h-0.615v0.615h0.615v-0.615z"></path>
<path fill="#5e94c1" style="fill: var(--color6, #5e94c1)" d="M6.879 6.687h-0.615v0.615h0.615v-0.615z"></path>
<path fill="#5e94c1" style="fill: var(--color6, #5e94c1)" d="M6.879 8.055h-0.615v0.615h0.615v-0.615z"></path>
<path fill="#5e94c1" style="fill: var(--color6, #5e94c1)" d="M6.879 9.422h-0.615v0.615h0.615v-0.615z"></path>
<path fill="#5e94c1" style="fill: var(--color6, #5e94c1)" d="M6.879 10.79h-0.615v0.615h0.615v-0.615z"></path>
<path fill="#5e94c1" style="fill: var(--color6, #5e94c1)" d="M6.879 12.157h-0.615v0.615h0.615v-0.615z"></path>
<path fill="#5e94c1" style="fill: var(--color6, #5e94c1)" d="M6.879 13.525h-0.615v0.615h0.615v-0.615z"></path>
<path fill="#5e94c1" style="fill: var(--color6, #5e94c1)" d="M6.879 14.892h-0.615v0.615h0.615v-0.615z"></path>
<path fill="#5e94c1" style="fill: var(--color6, #5e94c1)" d="M6.879 16.26h-0.615v0.615h0.615v-0.615z"></path>
<path fill="#5e94c1" style="fill: var(--color6, #5e94c1)" d="M6.879 17.627h-0.615v0.615h0.615v-0.615z"></path>
<path fill="#5e94c1" style="fill: var(--color6, #5e94c1)" d="M6.879 18.995h-0.615v0.615h0.615v-0.615z"></path>
<path fill="#5e94c1" style="fill: var(--color6, #5e94c1)" d="M6.879 20.362h-0.615v0.615h0.615v-0.615z"></path>
<path fill="#5e94c1" style="fill: var(--color6, #5e94c1)" d="M6.879 21.73h-0.615v0.615h0.615v-0.615z"></path>
<path fill="#5e94c1" style="fill: var(--color6, #5e94c1)" d="M6.879 23.097h-0.615v0.615h0.615v-0.615z"></path>
<path fill="#5e94c1" style="fill: var(--color6, #5e94c1)" d="M6.879 24.465h-0.615v0.615h0.615v-0.615z"></path>
<path fill="#5e94c1" style="fill: var(--color6, #5e94c1)" d="M6.879 25.832h-0.615v0.615h0.615v-0.615z"></path>
<path fill="#5e94c1" style="fill: var(--color6, #5e94c1)" d="M6.879 27.2h-0.615v0.615h0.615v-0.615z"></path>
<path fill="#fcfdfd" style="fill: var(--color3, #fcfdfd)" d="M19.651 27.2h-6.605v0.615h6.605v-0.615z"></path>
<path fill="#fcfdfd" style="fill: var(--color3, #fcfdfd)" d="M38.933 27.802l-2.598-1.108v-0.451l2.598-1.108v0.479l-2.065 0.848 2.065 0.848v0.492z"></path>
<path fill="#fcfdfd" style="fill: var(--color3, #fcfdfd)" d="M40.766 24.479l-1.135 3.925h-0.383l1.135-3.925h0.383z"></path>
<path fill="#fcfdfd" style="fill: var(--color3, #fcfdfd)" d="M43.665 26.694l-2.598 1.108v-0.479l2.065-0.848-2.065-0.848v-0.479l2.598 1.108v0.438z"></path>
<path fill="#00bbd3" style="fill: var(--color7, #00bbd3)" d="M46.085 31.959h-43.35c-1.504 0-2.735-1.231-2.735-2.735h48.821c0 1.518-1.231 2.735-2.735 2.735z"></path>
<path fill="#fff" style="fill: var(--color8, #fff)" opacity="0.0010000000000000002" d="M17.696 29.785l10.202-28.745h-3.87l-10.202 28.745h3.87z"></path>
<path fill="#fff" style="fill: var(--color8, #fff)" opacity="0.0010000000000000002" d="M4.827 29.785h1.819l10.202-28.745h-12.021c-0.574 0-1.039 0.465-1.039 1.039v26.653c-0.014 0.574 0.465 1.053 1.039 1.053z"></path>
<path fill="#fff" style="fill: var(--color8, #fff)" opacity="0.0010000000000000002" d="M39.33 29.785h5.292c0.574 0 1.039-0.465 1.039-1.039v-16.793l-6.332 17.832z"></path>
<path fill="#fff" style="fill: var(--color8, #fff)" opacity="0.0010000000000000002" d="M25.203 29.785h7.097l10.202-28.745h-7.097l-10.202 28.745z"></path>
<path fill="#15d7e2" style="fill: var(--color9, #15d7e2)" d="M48.451 30.591c0.232-0.397 0.369-0.875 0.369-1.368h-48.821c0 0.492 0.137 0.971 0.369 1.368h48.082z"></path>
</symbol>
<symbol id="icon-project" viewBox="0 0 32 32">
<path d="M31.467 0h-24c-0.295 0-0.533 0.239-0.533 0.533v8h1.067v-7.467h22.933v29.333c0.005 0.28-0.211 0.515-0.491 0.533-0.046 0-0.092-0.004-0.138-0.005-0.094-0.003-0.189-0.005-0.282-0.014-0.008 0-0.015 0-0.023-0.003-1.742-0.19-3.118-1.565-3.31-3.307 0-0.008-0.003-0.015-0.004-0.023-0.013-0.127-0.019-0.254-0.019-0.381v-1.067c0-0.295-0.239-0.533-0.533-0.533h-18.133v-9.6h-1.067v9.6h-4.267c-0.295 0-0.533 0.239-0.533 0.533v1.067c0.003 2.65 2.15 4.797 4.8 4.8h23.52c0.865-0.023 1.553-0.734 1.547-1.6v-29.867c0-0.295-0.239-0.533-0.533-0.533zM6.933 30.933c-2.061-0.002-3.731-1.672-3.733-3.733v-0.533h22.4v0.533c0.001 0.176 0.011 0.352 0.030 0.526 0.005 0.046 0.014 0.091 0.020 0.137 0.018 0.129 0.039 0.258 0.067 0.384 0.010 0.044 0.022 0.088 0.033 0.132 0.033 0.129 0.069 0.255 0.112 0.38 0.012 0.036 0.025 0.071 0.038 0.107 0.049 0.132 0.104 0.261 0.164 0.389 0.013 0.026 0.024 0.053 0.037 0.077 0.067 0.135 0.14 0.266 0.22 0.394 0.011 0.017 0.020 0.035 0.031 0.053 0.087 0.136 0.181 0.268 0.281 0.395l0.017 0.023c0.116 0.146 0.241 0.286 0.373 0.418 0.115 0.114 0.234 0.22 0.357 0.32l-20.449-0.002z"></path>
<path d="M17.6 14.933c0.142 0 0.277-0.056 0.377-0.156l2.133-2.133c0.208-0.208 0.208-0.546 0-0.754l-2.133-2.133c-0.1-0.1-0.236-0.156-0.377-0.156h-14.933c-1.473 0-2.667 1.194-2.667 2.667s1.194 2.667 2.667 2.667h14.933zM17.462 10.75l1.517 1.517-1.517 1.517-0.379-1.517 0.379-1.517zM4.267 10.667h12.117l-0.267 1.067h-10.784v1.067h10.784l0.267 1.067h-12.117v-3.2zM1.067 12.267c0-0.884 0.716-1.6 1.6-1.6h0.533v3.2h-0.533c-0.884 0-1.6-0.716-1.6-1.6z"></path>
<path d="M12.267 22.933h16c0.295 0 0.533-0.239 0.533-0.533v-16c-0-0.295-0.239-0.533-0.533-0.533-0.141 0-0.277 0.056-0.377 0.156l-16 16c-0.208 0.208-0.208 0.546 0 0.754 0.1 0.1 0.236 0.156 0.377 0.156zM27.733 7.687v1.379h-1.067v1.067h1.067v1.067h-1.067v1.067h1.067v1.067h-1.067v1.067h1.067v1.067h-1.067v1.067h1.067v1.067h-1.067v1.067h1.067v1.067h-1.067v1.067h1.067v1.067h-1.067v-1.067h-1.067v1.067h-1.067v-1.067h-1.067v1.067h-1.067v-1.067h-1.067v1.067h-1.067v-1.067h-1.067v1.067h-1.067v-1.067h-1.067v1.067h-1.067v-1.067h-1.067v1.067h-1.379l14.179-14.179z"></path>
<path d="M19.992 19.733h5.075c0.295 0 0.533-0.239 0.533-0.533v-5.075c-0-0.295-0.239-0.533-0.534-0.533-0.141 0-0.277 0.056-0.377 0.156l-5.075 5.075c-0.208 0.208-0.208 0.546 0 0.754 0.1 0.1 0.236 0.156 0.377 0.156zM24.533 15.413v3.253h-3.253l3.253-3.253z"></path>
<path d="M24.533 3.2h-10.667v1.067h10.667v-1.067z"></path>
<path d="M26.133 5.333h-13.867v1.067h13.867v-1.067z"></path>
<path d="M12.267 16.533h-3.2v1.067h3.2v-1.067z"></path>
<path d="M11.2 18.667h-2.133v1.067h2.133v-1.067z"></path>
</symbol>
<symbol id="icon-eye" viewBox="0 0 32 32">
<path d="M27.601 11.655c-6.427-6.426-16.882-6.426-23.309 0l-4.292 4.292 4.399 4.399c3.213 3.213 7.434 4.82 11.655 4.82s8.441-1.607 11.655-4.82l4.293-4.292-4.4-4.398zM26.943 19.581c-6.005 6.004-15.775 6.004-21.78 0l-3.635-3.635 3.528-3.528c6.005-6.004 15.775-6.004 21.78 0l3.635 3.635-3.528 3.528z"></path>
<path d="M15.444 11.66c-2.086 0-3.784 1.697-3.784 3.784 0 0.298 0.242 0.541 0.541 0.541s0.541-0.242 0.541-0.541c0-1.49 1.212-2.703 2.703-2.703 0.298 0 0.541-0.242 0.541-0.541s-0.242-0.541-0.541-0.541z"></path>
<path d="M15.985 8.957c-3.875 0-7.027 3.152-7.027 7.027s3.152 7.027 7.027 7.027 7.027-3.152 7.027-7.027c0-3.875-3.152-7.027-7.027-7.027zM15.985 21.93c-3.278 0-5.946-2.668-5.946-5.946s2.668-5.946 5.946-5.946 5.946 2.668 5.946 5.946c0 3.278-2.667 5.946-5.946 5.946z"></path>
</symbol>
<symbol id="icon-vk" viewBox="0 0 35 32">
<path d="M34.814 23.36c-0.042-0.084-0.082-0.153-0.119-0.208-0.607-1-1.768-2.227-3.481-3.682l-0.036-0.033-0.018-0.016-0.018-0.017h-0.018c-0.777-0.678-1.27-1.133-1.476-1.366-0.377-0.444-0.462-0.894-0.256-1.35 0.146-0.344 0.693-1.071 1.64-2.182 0.498-0.589 0.893-1.061 1.184-1.416 2.102-2.555 3.013-4.187 2.734-4.898l-0.109-0.166c-0.073-0.1-0.261-0.192-0.565-0.275s-0.693-0.097-1.167-0.042l-5.248 0.033c-0.085-0.028-0.206-0.025-0.365 0.008s-0.237 0.050-0.237 0.050l-0.091 0.042-0.072 0.050c-0.061 0.033-0.128 0.091-0.201 0.175s-0.133 0.18-0.182 0.292c-0.571 1.344-1.221 2.594-1.95 3.749-0.45 0.689-0.862 1.286-1.239 1.791s-0.692 0.878-0.947 1.116c-0.255 0.239-0.486 0.43-0.693 0.575s-0.364 0.206-0.474 0.183c-0.11-0.022-0.213-0.045-0.31-0.067-0.17-0.1-0.307-0.236-0.41-0.408s-0.173-0.389-0.21-0.65c-0.036-0.261-0.058-0.486-0.064-0.675s-0.003-0.456 0.009-0.8c0.013-0.344 0.018-0.578 0.018-0.7 0-0.422 0.009-0.88 0.027-1.375s0.033-0.886 0.046-1.174c0.012-0.289 0.018-0.594 0.018-0.916s-0.021-0.575-0.064-0.758c-0.042-0.183-0.106-0.361-0.191-0.533s-0.21-0.305-0.374-0.4c-0.164-0.094-0.368-0.169-0.61-0.225-0.644-0.133-1.464-0.205-2.46-0.216-2.26-0.022-3.711 0.111-4.355 0.4-0.255 0.122-0.486 0.289-0.692 0.5-0.219 0.244-0.249 0.378-0.091 0.4 0.729 0.1 1.245 0.339 1.549 0.716l0.11 0.2c0.085 0.144 0.17 0.4 0.255 0.766s0.14 0.772 0.164 1.216c0.061 0.811 0.061 1.505 0 2.083s-0.118 1.028-0.173 1.35c-0.055 0.322-0.137 0.583-0.246 0.783s-0.182 0.322-0.219 0.366c-0.036 0.044-0.067 0.072-0.091 0.083-0.158 0.055-0.322 0.084-0.492 0.084s-0.377-0.078-0.62-0.233-0.495-0.369-0.756-0.641c-0.261-0.272-0.556-0.653-0.884-1.141s-0.668-1.066-1.020-1.733l-0.292-0.483c-0.182-0.311-0.431-0.764-0.747-1.358s-0.595-1.169-0.838-1.725c-0.097-0.233-0.243-0.411-0.437-0.533l-0.091-0.050c-0.061-0.044-0.158-0.091-0.292-0.142s-0.273-0.086-0.419-0.108l-4.993 0.033c-0.51 0-0.856 0.106-1.039 0.317l-0.073 0.1c-0.036 0.056-0.055 0.144-0.055 0.267s0.036 0.272 0.109 0.45c0.729 1.566 1.522 3.077 2.378 4.532s1.601 2.627 2.232 3.515c0.632 0.889 1.276 1.727 1.932 2.516s1.090 1.294 1.303 1.516c0.213 0.222 0.38 0.389 0.501 0.5l0.456 0.4c0.292 0.267 0.72 0.586 1.285 0.958s1.191 0.739 1.877 1.1c0.687 0.361 1.485 0.655 2.396 0.883s1.798 0.319 2.661 0.275h2.096c0.425-0.034 0.747-0.156 0.966-0.367l0.072-0.084c0.049-0.066 0.094-0.169 0.137-0.308s0.064-0.292 0.064-0.458c-0.012-0.478 0.027-0.908 0.118-1.291s0.194-0.672 0.31-0.866c0.116-0.194 0.246-0.358 0.392-0.491s0.249-0.214 0.31-0.242c0.061-0.028 0.109-0.047 0.145-0.058 0.292-0.089 0.635-0.003 1.030 0.258s0.765 0.583 1.112 0.966c0.346 0.383 0.762 0.814 1.248 1.291s0.911 0.833 1.276 1.066l0.364 0.2c0.243 0.133 0.559 0.256 0.948 0.367s0.728 0.139 1.020 0.083l4.665-0.067c0.461 0 0.82-0.070 1.075-0.208s0.407-0.292 0.456-0.458c0.049-0.167 0.051-0.356 0.009-0.567-0.043-0.211-0.086-0.358-0.128-0.441z"></path>
</symbol>
<symbol id="icon-WD" viewBox="0 0 72 32">
<path d="M8.145 0.474c-0.079 0.592-0.132 1.197-0.158 1.816-0.026 0.605-0.039 1.237-0.039 1.895 0 1.171 0.059 2.368 0.178 3.592 0.118 1.211 0.296 2.421 0.533 3.632s0.533 2.401 0.888 3.572c0.355 1.158 0.763 2.263 1.224 3.316 0.474 1.053 1 2.033 1.579 2.941 0.592 0.908 1.243 1.71 1.954 2.408 0.776-0.803 1.401-1.724 1.875-2.763 0.487-1.053 0.862-2.145 1.125-3.276 0.276-1.145 0.461-2.296 0.553-3.454s0.145-2.257 0.158-3.296h4.342c0 1.040 0.046 2.132 0.138 3.276s0.27 2.283 0.533 3.414c0.263 1.118 0.632 2.204 1.105 3.257 0.474 1.040 1.092 1.974 1.855 2.803 1.105-1.197 2.059-2.553 2.862-4.066 0.803-1.526 1.467-3.125 1.993-4.796s0.914-3.382 1.164-5.132c0.25-1.75 0.375-3.467 0.375-5.151 0-1.408-0.079-2.763-0.237-4.066 1.158 0.053 2.191 0.132 3.099 0.237 0.921 0.105 1.717 0.211 2.388 0.316 0.763 0.132 1.447 0.263 2.053 0.395v4.974c-0.434-0.145-0.862-0.257-1.283-0.336-0.408-0.092-0.809-0.191-1.204-0.296 0 2.829-0.276 5.454-0.829 7.875-0.539 2.408-1.296 4.658-2.27 6.75s-2.138 4.033-3.493 5.822c-1.355 1.789-2.842 3.461-4.461 5.013-1.158-1.118-2.237-2.368-3.237-3.75-0.987-1.382-1.895-2.947-2.724-4.697-0.855 1.75-1.789 3.322-2.803 4.717-1 1.395-2.079 2.651-3.237 3.77-1.605-1.553-3.072-3.224-4.401-5.013s-2.467-3.73-3.414-5.822c-0.947-2.092-1.684-4.342-2.211-6.75-0.526-2.421-0.789-5.046-0.789-7.875-0.474 0.105-0.934 0.204-1.382 0.296-0.434 0.079-0.868 0.191-1.303 0.336v-5.013c0 0.013 0.171-0.013 0.513-0.079 0.355-0.066 0.855-0.145 1.5-0.237 0.658-0.105 1.447-0.204 2.368-0.296 0.921-0.105 1.961-0.191 3.118-0.257zM56.303 0.237c2.026 0 3.934 0.178 5.724 0.533s3.355 0.849 4.697 1.48c1.342 0.632 2.401 1.395 3.178 2.289 0.776 0.882 1.164 1.855 1.164 2.921v15.71c0 1.066-0.388 2.046-1.164 2.941-0.776 0.882-1.836 1.638-3.178 2.27s-2.908 1.125-4.697 1.48c-1.789 0.355-3.697 0.533-5.724 0.533-1.132 0-2.29-0.040-3.474-0.118-1.184-0.092-2.336-0.204-3.454-0.335-1.105-0.145-2.145-0.309-3.118-0.493s-1.809-0.382-2.507-0.592v-27.079c0.697-0.211 1.533-0.408 2.507-0.592s2.013-0.342 3.118-0.474c1.118-0.145 2.27-0.257 3.454-0.336 1.184-0.092 2.342-0.138 3.474-0.138zM56.382 4.697c-1.197 0-2.237 0.039-3.118 0.118-0.882 0.066-1.638 0.158-2.27 0.276-0.632 0.105-1.158 0.224-1.579 0.355-0.408 0.118-0.743 0.224-1.007 0.316v19.105c0.263 0.105 0.599 0.217 1.007 0.336 0.421 0.118 0.947 0.237 1.579 0.355 0.632 0.105 1.388 0.197 2.27 0.276 0.882 0.066 1.921 0.099 3.118 0.099 1.474 0 2.796-0.118 3.967-0.355 1.184-0.237 2.178-0.553 2.98-0.947 0.816-0.395 1.441-0.849 1.875-1.362 0.434-0.526 0.651-1.072 0.651-1.638v-12.632c0-0.566-0.217-1.105-0.651-1.618-0.434-0.526-1.059-0.987-1.875-1.382-0.803-0.395-1.796-0.711-2.98-0.947-1.171-0.237-2.493-0.355-3.967-0.355z"></path>
</symbol>
</defs>
</svg>
